<?xml version="1.0" encoding="UTF-8" standalone="no"?>
<!-- Generator: Adobe Illustrator 22.0.1, SVG Export Plug-In . SVG Version: 6.00 Build 0)  -->

<svg
   xmlns:dc="http://purl.org/dc/elements/1.1/"
   xmlns:cc="http://creativecommons.org/ns#"
   xmlns:rdf="http://www.w3.org/1999/02/22-rdf-syntax-ns#"
   xmlns:svg="http://www.w3.org/2000/svg"
   xmlns="http://www.w3.org/2000/svg"
   xmlns:sodipodi="http://sodipodi.sourceforge.net/DTD/sodipodi-0.dtd"
   xmlns:inkscape="http://www.inkscape.org/namespaces/inkscape"
   version="1.1"
   id="レイヤー_1"
   x="0px"
   y="0px"
   viewBox="0 0 181.6 105"
   style="enable-background:new 0 0 181.6 105;"
   xml:space="preserve"
   sodipodi:docname="logo-white.svg"
   inkscape:version="0.92.2 (5c3e80d, 2017-08-06)"><metadata
     id="metadata3883"><rdf:RDF><cc:Work
         rdf:about=""><dc:format>image/svg+xml</dc:format><dc:type
           rdf:resource="http://purl.org/dc/dcmitype/StillImage" /><dc:title /></cc:Work></rdf:RDF></metadata><defs
     id="defs3881" /><sodipodi:namedview
     pagecolor="#ffffff"
     bordercolor="#666666"
     borderopacity="1"
     objecttolerance="10"
     gridtolerance="10"
     guidetolerance="10"
     inkscape:pageopacity="0"
     inkscape:pageshadow="2"
     inkscape:window-width="1366"
     inkscape:window-height="706"
     id="namedview3879"
     showgrid="false"
     inkscape:zoom="2.4857143"
     inkscape:cx="50.924051"
     inkscape:cy="59.620008"
     inkscape:window-x="-8"
     inkscape:window-y="-8"
     inkscape:window-maximized="1"
     inkscape:current-layer="g3876" /><g
     id="g3876"><text
       xml:space="preserve"
       style="font-style:normal;font-weight:normal;font-size:40px;line-height:1.25;font-family:sans-serif;letter-spacing:-1.28999996px;word-spacing:0px;fill:#ffffff;fill-opacity:1;stroke:none;"
       x="4.8875022"
       y="89.511497"
       id="text3887"><tspan
         sodipodi:role="line"
         id="tspan3885"
         x="4.8875022"
         y="89.511497"
         style="font-style:normal;font-variant:normal;font-weight:bold;font-stretch:normal;font-size:26.66666603px;line-height:1.25;font-family:Arial;-inkscape-font-specification:'Arial Bold';letter-spacing:-1.14999998px;fill:#ffffff;">Garage Minato</tspan></text>
<text
       xml:space="preserve"
       style="font-style:normal;font-weight:normal;font-size:40px;line-height:1.25;font-family:sans-serif;letter-spacing:-1.28999996px;word-spacing:0px;fill:#ffffff;fill-opacity:1;stroke:none;"
       x="35.379299"
       y="103.31641"
       id="text3887-8"><tspan
         sodipodi:role="line"
         id="tspan3885-3"
         x="35.379299"
         y="103.31641"
         style="font-style:normal;font-variant:normal;font-weight:normal;font-stretch:normal;font-size:8px;line-height:1.25;font-family:Arial;-inkscape-font-specification:Arial;letter-spacing:0.1px;fill:#ffffff;">powered by SEIKO-SEIMITSU</tspan></text>
<path
       style="fill:#ffffff;stroke-width:0.40229884"
       d="M 76.628801,30.624142 C 62.642744,20.532901 62.641504,20.531876 63.558611,19.820831 66.485733,17.551396 90.537245,0.4834406 90.808124,0.4834406 c 0.23542,0 27.204256,19.1123164 28.098726,19.9130484 0.0664,0.05943 -1.16018,1.039695 -2.72571,2.178364 l -2.84641,2.070308 -11.25729,-8.050825 -11.257278,-8.0508267 -8.222946,5.8987987 c -4.52262,3.244339 -8.144956,6.024988 -8.049636,6.17922 0.323753,0.523843 15.864025,11.643522 16.272367,11.643522 0.452797,0 5.208776,-3.300755 5.225615,-3.626692 0.0059,-0.113934 -2.340133,-1.892079 -5.213376,-3.951434 -2.873243,-2.059355 -5.311896,-3.886375 -5.419229,-4.060045 -0.107334,-0.173669 1.05788,-1.17971 2.589364,-2.235647 l 2.784517,-1.919886 1.170787,0.756047 c 2.491003,1.60859 15.747825,11.226462 15.736615,11.416967 -0.0127,0.216489 -16.206212,11.781366 -16.750771,11.962887 -0.180007,0.06 -6.621607,-4.432396 -14.314668,-9.983105 z"
       id="path24"
       inkscape:connector-curvature="0" /><path
       style="fill:#ffffff;stroke-width:0.40229884"
       d="M 76.628801,30.624142 C 62.642744,20.532901 62.641504,20.531876 63.558611,19.820831 66.485733,17.551396 90.537245,0.4834406 90.808124,0.4834406 c 0.23542,0 27.204256,19.1123164 28.098726,19.9130484 0.0664,0.05943 -1.16018,1.039695 -2.72571,2.178364 l -2.84641,2.070308 -11.25729,-8.050825 -11.257278,-8.0508267 -8.222946,5.8987987 c -4.52262,3.244339 -8.144956,6.024988 -8.049636,6.17922 0.323753,0.523843 15.864025,11.643522 16.272367,11.643522 0.452797,0 5.208776,-3.300755 5.225615,-3.626692 0.0059,-0.113934 -2.340133,-1.892079 -5.213376,-3.951434 -2.873243,-2.059355 -5.311896,-3.886375 -5.419229,-4.060045 -0.107334,-0.173669 1.05788,-1.17971 2.589364,-2.235647 l 2.784517,-1.919886 1.170787,0.756047 c 2.491003,1.60859 15.747825,11.226462 15.736615,11.416967 -0.0127,0.216489 -16.206212,11.781366 -16.750771,11.962887 -0.180007,0.06 -6.621607,-4.432396 -14.314668,-9.983105 z"
       id="path26"
       inkscape:connector-curvature="0" /><path
       style="fill:#ffffff;stroke-width:0.40229884"
       d="M 76.628801,30.624142 C 62.642744,20.532901 62.641504,20.531876 63.558611,19.820831 66.485733,17.551396 90.537245,0.4834406 90.808124,0.4834406 c 0.23542,0 27.204256,19.1123164 28.098726,19.9130484 0.0664,0.05943 -1.16018,1.039695 -2.72571,2.178364 l -2.84641,2.070308 -11.25729,-8.050825 -11.257278,-8.0508267 -8.222946,5.8987987 c -4.52262,3.244339 -8.144956,6.024988 -8.049636,6.17922 0.323753,0.523843 15.864025,11.643522 16.272367,11.643522 0.452797,0 5.208776,-3.300755 5.225615,-3.626692 0.0059,-0.113934 -2.340133,-1.892079 -5.213376,-3.951434 -2.873243,-2.059355 -5.311896,-3.886375 -5.419229,-4.060045 -0.107334,-0.173669 1.05788,-1.17971 2.589364,-2.235647 l 2.784517,-1.919886 1.170787,0.756047 c 2.491003,1.60859 15.747825,11.226462 15.736615,11.416967 -0.0127,0.216489 -16.206212,11.781366 -16.750771,11.962887 -0.180007,0.06 -6.621607,-4.432396 -14.314668,-9.983105 z"
       id="path28"
       inkscape:connector-curvature="0" /><path
       style="fill:#ffffff;stroke-width:0.40229884"
       d="m 90.808594,0.484375 c -0.270879,0 -24.322878,17.066503 -27.25,19.335937 -0.917107,0.711045 -0.915745,0.713447 13.070312,10.804688 7.693061,5.550709 14.134446,10.042422 14.314453,9.982422 0.544559,-0.181521 16.737301,-11.746402 16.750001,-11.962891 0.0112,-0.190505 -13.245326,-9.809379 -15.736329,-11.417969 l -1.169922,-0.755859 -2.785156,1.919922 c -1.531484,1.055937 -2.697178,2.062659 -2.589844,2.236328 0.107333,0.17367 2.546679,2.001192 5.419922,4.060547 2.873243,2.059355 5.218791,3.837238 5.212891,3.951172 -0.01684,0.325937 -4.771812,3.626953 -5.22461,3.626953 -0.408342,0 -15.949684,-11.120688 -16.273437,-11.644531 -0.09532,-0.154232 3.528161,-2.935349 8.050781,-6.179688 l 8.222656,-5.8984372 11.257808,8.0507812 11.25586,8.050781 2.84766,-2.070312 c 1.56553,-1.138669 2.79101,-2.118305 2.72461,-2.177735 C 118.01178,19.595752 91.044014,0.484375 90.808594,0.484375 Z"
       id="path30"
       inkscape:connector-curvature="0" /><g
       id="g3874"
       style="fill:#ffffff"><g
         id="g3872"
         style="fill:#ffffff"><polygon
           points="62.2,20.5 90.8,41.1 108.2,28.6 90.8,16.1 84.7,20.5 95.9,28.6 90.8,32.3 74.5,20.5 90.8,8.8 113.3,24.9      119.4,20.5 90.8,0    "
           id="polygon3868"
           style="fill:#ffffff" /><polygon
           points="62.2,36.7 90.8,57.2 119.4,36.7 113.3,32.3 90.8,48.4 68.3,32.3    "
           id="polygon3870"
           style="fill:#ffffff" /></g></g></g></svg>